<svg xmlns="http://www.w3.org/2000/svg" viewBox="0 11.899999618530273 277.6499938964844 49.19999694824219" data-asc="0.94" width="277.6499938964844" height="49.19999694824219"><defs/><g><g fill="#a56969"><g transform="translate(0, 0)"><path d="M10.40 53.20Q8.70 53.20 7.03 52.80Q5.35 52.40 3.90 51.50Q2.10 50.40 1.05 48.52Q0 46.65 0 44.60Q0 44.25 0.15 44.20Q0.30 44.30 0.40 44.63Q0.50 44.95 0.70 44.95Q0.95 44.95 1.10 44.58Q1.25 44.20 1.30 44.10Q1.55 43.55 1.70 43.25Q1.85 42.95 2.40 42.60Q2.60 42.50 3.08 42.30Q3.55 42.10 4.03 41.92Q4.50 41.75 4.65 41.75Q4.70 41.75 4.70 41.80Q4.70 41.90 4.13 42.15Q3.55 42.40 2.98 42.92Q2.40 43.45 2.40 44.40Q2.40 44.55 2.50 44.95Q3.40 48.45 6 50.02Q8.60 51.60 12 51.60Q15.10 51.60 18.15 50.55Q21.20 49.50 23.95 47.77Q26.70 46.05 28.85 43.95Q30.90 42 32.88 39.98Q34.85 37.95 36.70 35.85L27.75 35.40Q27.45 35.40 27.15 35.38Q26.85 35.35 26.55 35.35Q25.40 35.35 23.85 35.63Q22.30 35.90 21.55 36.90Q21.20 37.40 21 38.05Q20.80 38.70 20.60 39.30Q20.30 39.20 20.05 38.92Q19.80 38.65 19.80 38.30Q19.80 37.75 20.38 37.20Q20.95 36.65 21.65 36.23Q22.35 35.80 22.80 35.55Q24.40 34.70 26.10 34.15Q27.80 33.60 29.65 33.60Q31.85 33.60 34.02 33.73Q36.20 33.85 38.35 33.95Q41.75 29.95 44.88 25.80Q48 21.65 51.65 17.90Q48.90 16.75 45.63 15.77Q42.35 14.80 38.98 14.23Q35.60 13.65 32.60 13.65Q30.80 13.65 28.73 13.98Q26.65 14.30 24.85 15.17Q23.05 16.05 21.95 17.70Q21.05 18.95 21.05 20.60Q21.05 22.70 22.30 24.13Q23.55 25.55 25.40 26.25Q27.25 26.95 29.10 26.95Q29.85 26.95 30.50 26.63Q31.15 26.30 31.65 25.80Q31.80 25.85 31.80 26Q31.80 26.05 31.78 26.13Q31.75 26.20 31.75 26.30Q31.10 27.25 30 27.57Q28.90 27.90 27.80 27.90Q25.70 27.90 23.73 27.10Q21.75 26.30 20.48 24.70Q19.20 23.10 19.20 20.75Q19.20 19.75 19.48 18.82Q19.75 17.90 20.25 17.05Q21.45 15.05 23.45 13.95Q25.45 12.85 27.75 12.38Q30.05 11.90 32.20 11.90Q35.55 11.90 39.10 12.65Q42.65 13.40 46.13 14.57Q49.60 15.75 52.65 17Q53.15 16.60 53.90 16.13Q54.65 15.65 55.30 15.65Q56 15.65 56.40 16.07Q56.80 16.50 56.80 17.20Q56.80 17.40 56.75 17.63Q56.70 17.85 56.65 18.10Q56.50 18.95 56.25 19.20Q56 19.45 55.73 19.57Q55.45 19.70 55.05 20.35Q54.30 21.60 53.33 24.02Q52.35 26.45 51.35 29.43Q50.35 32.40 49.50 35.42Q48.65 38.45 48.13 41Q47.60 43.55 47.60 45.10Q47.60 45.75 47.73 46.50Q47.85 47.25 48.28 47.77Q48.70 48.30 49.55 48.30Q50.25 48.30 50.75 47.92Q51.25 47.55 51.70 47.05Q51.85 46.95 51.85 47.20L51.85 47.30Q51.85 48.05 50.98 48.63Q50.10 49.20 49.03 49.50Q47.95 49.80 47.30 49.80Q45.60 49.80 45.20 48.73Q44.80 47.65 44.80 46.20Q44.80 44.35 45.20 42.15Q45.60 39.95 46.23 37.77Q46.85 35.60 47.45 33.80L45.35 35.80Q44.35 35.90 43.35 35.92Q42.35 35.95 41.35 35.95Q40.55 35.95 39.77 35.95Q39 35.95 38.20 35.90Q35.70 38.70 33.10 41.50Q30.50 44.30 27.40 46.45Q25.05 48.10 22.23 49.65Q19.40 51.20 16.40 52.20Q13.40 53.20 10.40 53.20M43.80 34.20Q44.75 34.20 45.65 34.13Q46.55 34.05 47.45 33.80Q48.85 29.70 50.58 25.75Q52.30 21.80 53.60 17.70L39.80 34.05Q40.80 34.10 41.80 34.15Q42.80 34.20 43.80 34.20ZM51.65 47.65Q51.55 47.65 51.55 47.60Q51.55 47.40 51.73 47.23Q51.90 47.05 52.00 46.90Q52.45 46.15 53.03 44.33Q53.60 42.50 54.18 40.30Q54.75 38.10 55.23 36.17Q55.70 34.25 55.90 33.25Q56.00 32.85 56.13 32.20Q56.25 31.55 56.45 30.90Q56.65 30.25 56.90 30.05Q57.35 29.65 58.25 29.35Q59.15 29.05 60.08 28.88Q61.00 28.70 61.60 28.70Q61.70 28.70 61.85 28.80Q62.00 28.90 62.05 29L62.10 29.15Q62.05 29.30 61.95 29.27Q61.85 29.25 61.75 29.25Q60.80 29.25 60.00 30.32Q59.20 31.40 58.60 32.95Q58.00 34.50 57.58 35.92Q57.15 37.35 57.00 38.05Q57.50 36.90 58.33 35.42Q59.15 33.95 60.25 32.58Q61.35 31.20 62.65 30.27Q63.95 29.35 65.40 29.35Q65.60 29.35 66.08 29.43Q66.55 29.50 66.98 29.68Q67.40 29.85 67.40 30.10L67.35 30.15L67.30 30.15L67 30.05Q67.15 30.40 67.20 30.75Q67.25 31.10 67.25 31.45Q67.25 31.75 67.08 32.75Q66.90 33.75 66.63 34.63Q66.35 35.50 66.05 35.50Q65.85 35.50 65.85 35.35Q65.85 35.10 66.03 34.52Q66.20 33.95 66.20 33.45Q66.20 32.55 65.75 32Q65.30 31.45 64.40 31.45Q62.90 31.45 61.50 32.73Q60.10 34 58.95 35.88Q57.80 37.75 57.00 39.65Q56.20 41.55 55.90 42.75Q55.70 43.40 55.55 44.42Q55.40 45.45 54.80 45.85Q54.65 45.90 53.88 46.35Q53.10 46.80 52.38 47.23Q51.65 47.65 51.65 47.65ZM66.70 47.10Q65.90 47.10 65.67 46.48Q65.45 45.85 65.45 45.20Q65.45 42.85 66.35 40.15Q67.25 37.45 68.70 34.98Q70.15 32.50 71.85 30.90Q73.65 29.25 76.10 29.25Q77.10 29.25 78.08 29.47Q79.05 29.70 80 30.10Q80.85 29.50 81.85 29.05Q82.85 28.60 83.90 28.60Q84.15 28.60 84.30 28.90L84.30 29.05Q84.30 29.20 84.17 29.18Q84.05 29.15 83.95 29.15Q83.15 29.15 82.20 30.38Q81.25 31.60 80.30 33.50Q79.35 35.40 78.58 37.50Q77.80 39.60 77.33 41.35Q76.85 43.10 76.85 44Q76.85 44.35 76.97 44.80Q77.10 45.25 77.55 45.25Q77.80 45.25 77.97 45.15Q78.15 45.05 78.35 44.95Q79.45 44.30 80.53 43.17Q81.60 42.05 82.53 40.73Q83.45 39.40 84.05 38.30Q84.10 38.35 84.10 38.50Q84.10 38.80 83.75 39.38Q83.40 39.95 82.95 40.60Q82.50 41.25 82.13 41.75Q81.75 42.25 81.75 42.35Q81.70 42.70 81.60 42.92Q81.50 43.15 81.30 43.50Q80.65 44.15 79.65 45Q78.65 45.85 77.58 46.48Q76.50 47.10 75.50 47.10Q73.95 47.10 73.95 45.45Q73.95 44.45 74.38 43.13Q74.80 41.80 75.38 40.48Q75.95 39.15 76.40 38.25Q76.40 38.20 76.40 38.10Q76.40 38 76.35 38Q76.30 38 76.20 38.10Q75.60 38.90 74.45 40.40Q73.30 41.90 71.92 43.42Q70.55 44.95 69.15 46.02Q67.75 47.10 66.70 47.10M68.90 44.95Q69.45 44.95 70.28 44.23Q71.10 43.50 72.03 42.48Q72.95 41.45 73.67 40.50Q74.40 39.55 74.70 39.10Q75.30 38.20 76.08 36.85Q76.85 35.50 77.42 34.05Q78 32.60 78 31.60Q78 30.05 76.45 30.05Q75.55 30.05 74.55 30.85Q73.55 31.65 72.95 32.30Q72.30 33.10 71.47 34.60Q70.65 36.10 69.95 37.85Q69.25 39.60 68.78 41.20Q68.30 42.80 68.30 43.85Q68.30 44.15 68.40 44.55Q68.50 44.95 68.90 44.95ZM83.40 47.40Q82.45 47.40 81.30 47.05Q80.15 46.70 79.60 45.75L79.60 45.65Q79.60 45.40 80.22 44.88Q80.85 44.35 81.55 43.83Q82.25 43.30 82.45 43.05L82.80 42.95L82.90 43.15Q82.55 43.45 82.55 43.80Q82.55 44.55 83.13 45.05Q83.70 45.55 84.47 45.80Q85.25 46.05 85.85 46.05Q86.55 46.05 87.63 45.65Q88.70 45.25 89.55 44.55Q90.40 43.85 90.40 43Q90.40 41.70 89.60 40.75Q88.80 39.80 87.75 38.95Q86.70 38.10 85.90 37.15Q85.10 36.20 85.10 34.95Q85.10 33.50 85.97 32.33Q86.85 31.15 88.22 30.32Q89.60 29.50 91.10 29.07Q92.60 28.65 93.85 28.65Q94.05 28.65 94.75 28.72Q95.45 28.80 96.08 28.97Q96.70 29.15 96.70 29.45Q96.70 29.55 96.65 29.55L96.55 29.55L96.15 29.45Q96.30 29.80 96.30 30.30Q96.30 30.75 96.10 31.45Q95.90 32.15 95.65 32.55Q95.60 32.65 95.15 33.20Q94.70 33.75 94.25 34.25Q93.80 34.75 93.70 34.75L93.65 34.65Q93.75 34.40 94.30 33.77Q94.85 33.15 94.85 32.15Q94.85 31.10 93.90 30.43Q92.95 29.75 91.95 29.75Q91 29.75 89.97 30.35Q88.95 30.95 88.27 31.90Q87.60 32.85 87.60 33.85Q87.60 34.75 88.47 35.73Q89.35 36.70 90.47 37.67Q91.60 38.65 92.47 39.60Q93.35 40.55 93.35 41.40L93.35 41.55Q93.35 42.80 92.25 43.88Q91.15 44.95 89.50 45.75Q87.85 46.55 86.17 46.98Q84.50 47.40 83.40 47.40ZM93.40 47.65Q93.30 47.65 93.30 47.60Q93.30 47.40 93.47 47.23Q93.65 47.05 93.75 46.90Q94.15 46.25 94.55 45.17Q94.95 44.10 95.32 42.98Q95.70 41.85 95.95 41.10Q96.95 38.15 97.90 35.15Q98.85 32.15 99.95 29.20Q100.60 27.45 101.50 25.22Q102.40 23 103.60 20.75Q104.80 18.50 106.32 16.63Q107.85 14.75 109.75 13.60Q111.65 12.45 113.95 12.45Q116.45 12.45 117.27 13.35Q118.10 14.25 118.10 15.20Q118.10 15.60 117.82 15.70Q117.55 15.80 117.55 15.45Q117.55 14.40 116.70 13.73Q115.85 13.05 114.70 13.05Q113.65 13.05 112.47 13.82Q111.30 14.60 110.25 15.65Q109.20 16.70 108.60 17.50Q106.60 20.20 105.35 22.50Q104.10 24.80 103.22 27Q102.35 29.20 101.57 31.65Q100.80 34.10 99.75 37.10L99.75 37.30Q99.75 37.45 99.80 37.45Q99.95 37.30 99.95 37.30Q101.50 35.25 103.13 33.27Q104.75 31.30 107.05 30.05Q107.40 29.85 107.85 29.63Q108.30 29.40 108.70 29.40Q109.35 29.40 109.47 29.97Q109.60 30.55 109.60 31.05Q109.60 32.10 108.92 33.77Q108.25 35.45 107.32 37.40Q106.40 39.35 105.72 41.23Q105.05 43.10 105.05 44.60Q105.05 44.80 105.13 45.08Q105.20 45.35 105.50 45.35Q106 45.35 106.85 44.52Q107.70 43.70 108.45 42.73Q109.20 41.75 109.40 41.30Q109.60 41.50 109.60 41.60Q109.60 42.05 108.72 43.02Q107.85 44 106.65 45.05Q105.45 46.10 104.35 46.85Q103.25 47.60 102.80 47.60Q102.30 47.60 102.13 46.85Q101.95 46.10 101.95 45.75Q101.95 44.80 102.38 43.35Q102.80 41.90 103.42 40.30Q104.05 38.70 104.67 37.25Q105.30 35.80 105.70 34.85Q105.85 34.55 106.15 33.77Q106.45 33 106.45 32.65Q106.45 32.40 106.38 32.10Q106.30 31.80 105.95 31.80Q105.40 31.80 104.63 32.45Q103.85 33.10 103.45 33.50Q101.30 35.85 99.72 38.83Q98.15 41.80 97.15 44.85Q97.05 45.25 97 45.40Q96.95 45.55 96.55 45.85Q96.40 45.90 95.63 46.35Q94.85 46.80 94.15 47.23Q93.45 47.65 93.40 47.65ZM120.15 25.50Q119.75 25.50 118.92 25.17Q118.10 24.85 118.10 24.35Q118.10 24.30 118.13 24.27Q118.15 24.25 118.15 24.20Q118.40 23.70 119.27 23.60Q120.15 23.50 120.60 23.30Q121.60 22.90 122.55 22.65Q123.50 22.40 124.35 21.75Q124.55 21.85 124.55 21.95Q124.55 22.15 124.13 22.50Q123.70 22.85 123.55 23.10Q123.35 23.40 122.67 23.97Q122 24.55 121.25 25.02Q120.50 25.50 120.15 25.50M111.70 47.15Q110.90 47.15 110.60 46.75Q110.30 46.35 110.30 45.60Q110.30 43.95 110.97 41.60Q111.65 39.25 112.50 36.83Q113.35 34.40 113.85 32.50Q114.05 31.80 114.83 31.52Q115.60 31.25 116.15 30.85Q116.95 30.30 117.85 29.93Q118.75 29.55 119.75 29.55Q120 29.55 120.08 29.65Q120.15 29.75 120.15 29.80Q120.15 30.10 119.80 30.10Q119.10 30.10 118.35 30.93Q117.60 31.75 116.85 33.05Q116.10 34.35 115.50 35.75Q114.90 37.15 114.45 38.33Q114 39.50 113.85 40.05Q113.60 40.85 113.35 41.92Q113.10 43 113.10 43.90Q113.10 44.25 113.20 44.73Q113.30 45.20 113.80 45.20Q114.15 45.20 114.55 44.95Q115.65 44.30 116.72 43.17Q117.80 42.05 118.72 40.73Q119.65 39.40 120.20 38.30Q120.30 38.35 120.30 38.50Q120.30 38.80 119.95 39.38Q119.60 39.95 119.15 40.60Q118.70 41.25 118.33 41.75Q117.95 42.25 117.95 42.35Q117.90 42.75 117.80 42.92Q117.70 43.10 117.50 43.50Q116.90 44.10 115.90 44.98Q114.90 45.85 113.80 46.50Q112.70 47.15 111.70 47.15ZM103.60 60.90Q103.25 60.90 102.42 60.65Q101.60 60.40 100.88 60Q100.15 59.60 100.15 59.20Q100.15 59.10 100.35 59.10Q100.55 59.20 100.75 59.20Q100.85 59.20 101.05 59.10Q100.85 58.80 100.85 58.50Q100.85 58.25 101 58.20L100.55 57.25Q100.45 57 100.05 56.50Q99.65 56 99.65 55.80Q99.65 55.50 99.70 55.35Q100.75 56.80 101.52 57.65Q102.30 58.50 103.35 58.88Q104.40 59.25 106.30 59.25Q108.15 59.25 109.88 57.73Q111.60 56.20 113.13 53.83Q114.65 51.45 115.90 48.75Q117.15 46.05 118.05 43.67Q118.95 41.30 119.45 39.90Q120.25 37.60 120.97 35.30Q121.70 33 122.45 30.70L119.75 30.85Q119.70 30.80 119.70 30.65Q119.70 30.35 120.10 29.95Q120.50 29.55 121 29.27Q121.50 29 121.75 29L123.05 29Q123.70 27.15 124.63 24.90Q125.55 22.65 126.77 20.40Q128 18.15 129.57 16.27Q131.15 14.40 133.10 13.25Q135.05 12.10 137.40 12.10Q137.65 12.10 138.47 12.20Q139.30 12.30 140.05 12.48Q140.80 12.65 140.80 13Q140.80 13.10 140.75 13.10Q140.75 13.10 140.72 13.10Q140.70 13.10 140.70 13.05L140.35 13Q140.55 13.45 140.55 14.20Q140.55 14.55 140.47 15.07Q140.40 15.60 140.25 15.90Q140.20 16 139.90 16.52Q139.60 17.05 139.30 17.50Q139 17.95 138.95 17.95Q138.90 17.90 138.90 17.85Q138.90 17.80 139.25 17.13Q139.60 16.45 139.60 15.75Q139.60 14.60 138.63 13.82Q137.65 13.05 136.60 13.05Q135.20 13.05 133.78 14.30Q132.35 15.55 131.05 17.55Q129.75 19.55 128.67 21.75Q127.60 23.95 126.80 25.92Q126 27.90 125.60 29.05L128.15 29.05Q128.85 29.05 129.50 29.02Q130.15 29 130.80 28.95L130.90 29L130.75 29.15Q130.60 29.30 130 29.60Q129.40 29.90 128.80 30.18Q128.20 30.45 127.95 30.50Q127.30 30.60 126.52 30.60Q125.75 30.60 125.05 30.60Q124.55 32.25 123.97 33.88Q123.40 35.50 122.85 37.10Q121.65 40.50 120.42 43.85Q119.20 47.20 117.52 50.27Q115.85 53.35 113.30 56.10Q111.45 58.10 108.92 59.50Q106.40 60.90 103.60 60.90ZM122.20 61.10Q121.95 61.10 121.07 61Q120.20 60.90 119.42 60.67Q118.65 60.45 118.65 60.15Q118.65 60.15 118.65 60.10Q118.65 60.05 118.70 60.05Q118.75 60.05 118.75 60.08Q118.75 60.10 118.75 60.10L119.10 60.15Q118.90 59.70 118.90 59Q118.90 58.65 118.97 58.13Q119.05 57.60 119.20 57.25Q119.25 57.15 119.55 56.65Q119.85 56.15 120.17 55.70Q120.50 55.25 120.55 55.25L120.55 55.30Q120.55 55.35 120.20 56.02Q119.85 56.70 119.85 57.40Q119.85 58.20 120.42 58.90Q121 59.60 121.85 60.02Q122.70 60.45 123.45 60.45Q124.90 60.45 126.25 59.25Q127.60 58.05 128.85 56.10Q130.10 54.15 131.17 51.80Q132.25 49.45 133.10 47.10Q133.95 44.75 134.60 42.75Q135.25 40.75 135.60 39.60Q135.60 39.55 135.63 39.52Q135.65 39.50 135.65 39.45Q135.65 39.30 135.55 39.30Q135.50 39.30 135.40 39.40Q133.85 41.45 132.22 43.42Q130.60 45.40 128.35 46.70Q128 46.90 127.55 47.10Q127.10 47.30 126.70 47.30Q125.75 47.30 125.75 45.70Q125.75 44.60 126.42 42.92Q127.10 41.25 128.03 39.30Q128.95 37.35 129.63 35.48Q130.30 33.60 130.30 32.10Q130.30 31.90 130.22 31.65Q130.15 31.40 129.90 31.40Q129.55 31.40 128.95 31.88Q128.35 32.35 127.70 33.05Q127.05 33.75 126.57 34.40Q126.10 35.05 125.95 35.40Q125.75 35.30 125.75 35.15Q125.75 34.70 126.63 33.73Q127.50 32.75 128.70 31.67Q129.90 30.60 131 29.85Q132.10 29.10 132.55 29.10Q133.10 29.10 133.28 29.85Q133.45 30.60 133.45 31Q133.45 31.95 133.03 33.38Q132.60 34.80 131.95 36.42Q131.30 38.05 130.67 39.48Q130.05 40.90 129.65 41.85Q129.55 42.20 129.22 42.98Q128.90 43.75 128.90 44.20Q128.90 44.95 129.45 44.95Q130 44.95 130.78 44.27Q131.55 43.60 131.90 43.20Q134.05 40.85 135.63 37.90Q137.20 34.95 138.20 31.90Q138.35 31.50 138.38 31.32Q138.40 31.15 138.80 30.90Q138.95 30.80 139.72 30.35Q140.50 29.90 141.25 29.47Q142 29.05 142 29.05Q142.05 29.05 142.05 29.15Q142.05 29.30 141.90 29.50Q141.75 29.70 141.65 29.80Q141.25 30.45 140.82 31.55Q140.40 32.65 140.03 33.75Q139.65 34.85 139.40 35.60Q138.40 38.60 137.45 41.60Q136.50 44.60 135.45 47.55Q134.70 49.65 133.47 52Q132.25 54.35 130.60 56.42Q128.95 58.50 126.85 59.80Q124.75 61.10 122.20 61.10ZM167.45 49.65Q161.95 49.65 158.63 46.90Q155.30 44.15 155.30 38.40Q155.30 34 157.05 30.02Q158.80 26.05 161.72 22.75Q164.65 19.45 168.20 17.10Q166.25 16.85 164.25 16.60Q162.25 16.35 160.30 16.35Q158.05 16.35 156.28 16.95Q154.50 17.55 152.95 19.25Q152.50 19.75 152.25 20.15Q152 20.55 152 21.25Q152 22.40 152.40 22.90Q152.80 23.40 153.35 23.55Q153.90 23.70 154.40 23.75Q154.90 23.80 155.05 24.05Q155 24.20 154.70 24.27Q154.40 24.35 154.20 24.35Q153.45 24.35 152.93 24Q152.40 23.65 152.03 23.32Q151.65 23 151.35 23Q151.25 23 151.18 23.10Q151.10 23.20 150.95 23.20Q150.55 23.20 150.50 22.63Q150.45 22.05 150.45 21.85Q150.45 21.30 150.90 20.60Q151.35 19.90 151.70 19.50Q153.85 16.90 156.33 15.85Q158.80 14.80 162.10 14.80Q164.25 14.80 166.35 15.07Q168.45 15.35 170.55 15.70Q173 14.35 175.75 13.67Q178.50 13 181.25 13Q182.85 13 184.60 13.32Q186.35 13.65 187.88 14.40Q189.40 15.15 190.35 16.45Q191.30 17.75 191.30 19.70Q191.30 21.25 190.75 22.75Q190.75 22.95 190.68 23.07Q190.60 23.20 190.50 23.35Q190.15 24 189.83 24.52Q189.50 25.05 188.60 25.05Q187.95 25.05 187.95 24.35Q187.95 24.10 187.98 23.82Q188 23.55 188.05 23.35Q184.05 21.15 179.38 19.67Q174.70 18.20 170.20 17.40Q167.90 19.10 165.75 21.45Q163.60 23.80 161.88 26.57Q160.15 29.35 159.15 32.35Q158.15 35.35 158.15 38.30Q158.15 41.65 159.65 43.90Q161.15 46.15 163.70 47.25Q166.25 48.35 169.45 48.35Q172.20 48.35 175.03 47.52Q177.85 46.70 180.40 45.23Q182.95 43.75 184.85 41.80Q186.20 40.40 187.63 38.50Q189.05 36.60 189.80 34.75Q189.80 34.70 189.93 34.45Q190.05 34.20 190.10 34.20Q190.20 34.20 190.23 34.50Q190.25 34.80 190.25 34.85Q190.25 35.10 190.23 35.98Q190.20 36.85 190.10 37.10Q189.40 39.30 187.43 41.27Q185.45 43.25 182.88 44.85Q180.30 46.45 177.63 47.55Q174.95 48.65 172.80 49.10Q171.50 49.35 170.15 49.50Q168.80 49.65 167.45 49.65M188.45 21.15Q188.50 20.85 188.53 20.55Q188.55 20.25 188.55 19.90Q188.55 17.65 187.30 16.38Q186.05 15.10 184.20 14.57Q182.35 14.05 180.45 14.05Q178.45 14.05 176.30 14.52Q174.15 15 172.35 16Q176.50 16.80 180.55 18.10Q184.60 19.40 188.45 21.15ZM190.65 46.95Q189.15 46.95 189.15 45.30Q189.15 44.15 189.75 42.10Q190.35 40.05 191.18 37.73Q192 35.40 192.82 33.33Q193.65 31.25 194.10 30.05Q194.75 28.30 195.70 26Q196.65 23.70 197.90 21.32Q199.15 18.95 200.72 16.95Q202.30 14.95 204.22 13.70Q206.15 12.45 208.45 12.45Q210.95 12.45 211.78 13.35Q212.60 14.25 212.60 15.20Q212.60 15.60 212.32 15.70Q212.05 15.80 212.05 15.45Q212.05 14.40 211.22 13.73Q210.40 13.05 209.20 13.05Q207.15 13.05 205.30 14.60Q203.45 16.15 201.85 18.60Q200.25 21.05 198.95 23.77Q197.65 26.50 196.68 28.93Q195.70 31.35 195.15 32.80Q194.80 33.75 194.20 35.27Q193.60 36.80 193.03 38.48Q192.45 40.15 192.05 41.67Q191.65 43.20 191.65 44.15Q191.65 44.45 191.75 44.85Q191.85 45.25 192.25 45.25Q192.50 45.25 192.68 45.15Q192.85 45.05 193.05 44.95Q194.20 44.30 195.28 43.17Q196.35 42.05 197.25 40.73Q198.15 39.40 198.75 38.30Q198.80 38.35 198.80 38.50Q198.80 38.90 198.22 39.75Q197.65 40.60 197.07 41.38Q196.50 42.15 196.45 42.35Q196.40 42.70 196.30 42.92Q196.20 43.15 196.05 43.50Q195.45 44.10 194.53 44.90Q193.60 45.70 192.60 46.33Q191.60 46.95 190.65 46.95ZM198.65 47.25Q197.70 47.25 197.33 46.73Q196.95 46.20 196.95 44.85Q196.95 42.90 197.45 40.75Q197.95 38.60 198.80 36.58Q199.65 34.55 200.70 33.05Q201.50 31.95 202.85 31Q204.20 30.05 205.75 29.45Q207.30 28.85 208.65 28.85Q209.10 28.85 209.75 28.97Q210.40 29.10 210.75 29.40Q211 29.60 211.08 29.95Q211.15 30.30 211.15 30.60Q211.15 31.90 210.72 33.63Q210.30 35.35 209.60 37.15Q208.90 38.95 208.10 40.52Q207.30 42.10 206.50 43.15Q206.05 43.75 205.05 44.48Q204.05 45.20 202.88 45.83Q201.70 46.45 200.55 46.85Q199.40 47.25 198.65 47.25M200 45.85Q202.35 45.35 203.80 43.60Q204.95 42.25 205.95 40.05Q206.95 37.85 207.58 35.50Q208.20 33.15 208.20 31.40Q208.20 31.25 208.18 30.90Q208.15 30.55 208 30.50Q207.40 30.20 206.65 30.20Q206.15 30.20 205.35 30.52Q204.55 30.85 204.15 31.25Q203.90 31.50 203.68 31.92Q203.45 32.35 203.25 32.65Q202.30 34.15 201.43 36.15Q200.55 38.15 200 40.25Q199.45 42.35 199.45 44.20Q199.45 44.80 199.58 45.27Q199.70 45.75 200 45.85ZM212.20 47.15Q211.40 47.15 211.10 46.75Q210.80 46.35 210.80 45.60Q210.80 44.30 211.40 42.33Q212 40.35 212.90 38.13Q213.80 35.90 214.68 33.88Q215.55 31.85 216.10 30.55Q215.45 30.60 214.80 30.60Q214.15 30.60 213.45 30.65Q213.35 30.55 213.35 30.45Q213.35 30.15 213.75 29.75Q214.15 29.35 214.68 29.07Q215.20 28.80 215.45 28.80L216.85 28.80Q217.35 27.60 217.88 26.40Q218.40 25.20 218.85 24Q219.10 23.35 219.43 22.92Q219.75 22.50 220.35 22.10Q221.20 21.55 222.45 21.20Q223.70 20.85 224.65 20.85Q224.75 20.85 224.88 20.95Q225 21.05 225.05 21.10L225.05 21.30Q225.05 21.45 224.93 21.40Q224.80 21.35 224.70 21.35Q224.10 21.35 223.30 22.32Q222.50 23.30 221.65 24.65Q220.80 26 220.18 27.22Q219.55 28.45 219.30 28.90L221.30 28.90Q222.10 28.90 222.90 28.88Q223.70 28.85 224.50 28.75L224.55 28.85Q224.50 28.85 224.50 28.90Q224.50 28.95 224.45 28.95Q224.30 29.10 223.70 29.43Q223.10 29.75 222.50 30Q221.90 30.25 221.65 30.30Q220.85 30.40 220.07 30.45Q219.30 30.50 218.50 30.50Q218 31.60 217.20 33.40Q216.40 35.20 215.60 37.23Q214.80 39.25 214.28 41.08Q213.75 42.90 213.75 44.10Q213.75 44.40 213.85 44.80Q213.95 45.20 214.35 45.20Q214.70 45.20 215.05 44.95Q216.15 44.30 217.22 43.17Q218.30 42.05 219.22 40.73Q220.15 39.40 220.70 38.30Q220.80 38.35 220.80 38.50Q220.80 38.80 220.45 39.38Q220.10 39.95 219.65 40.60Q219.20 41.25 218.82 41.75Q218.45 42.25 218.45 42.35Q218.40 42.75 218.28 42.92Q218.15 43.10 218 43.50Q217.35 44.10 216.35 44.98Q215.35 45.85 214.25 46.50Q213.15 47.15 212.20 47.15ZM218.40 47.65Q218.30 47.65 218.30 47.60Q218.30 47.40 218.47 47.23Q218.65 47.05 218.75 46.90Q219.15 46.25 219.55 45.17Q219.95 44.10 220.32 42.98Q220.70 41.85 220.95 41.10Q221.95 38.15 222.90 35.15Q223.85 32.15 224.95 29.20Q225.60 27.45 226.50 25.22Q227.40 23 228.60 20.75Q229.80 18.50 231.32 16.63Q232.85 14.75 234.75 13.60Q236.65 12.45 238.95 12.45Q241.45 12.45 242.28 13.35Q243.10 14.25 243.10 15.20Q243.10 15.60 242.82 15.70Q242.55 15.80 242.55 15.45Q242.55 14.40 241.70 13.73Q240.85 13.05 239.70 13.05Q238.65 13.05 237.47 13.82Q236.30 14.60 235.25 15.65Q234.20 16.70 233.60 17.50Q231.60 20.20 230.35 22.50Q229.10 24.80 228.22 27Q227.35 29.20 226.57 31.65Q225.80 34.10 224.75 37.10L224.75 37.30Q224.75 37.45 224.80 37.45Q224.95 37.30 224.95 37.30Q226.50 35.25 228.13 33.27Q229.75 31.30 232.05 30.05Q232.40 29.85 232.85 29.63Q233.30 29.40 233.70 29.40Q234.35 29.40 234.47 29.97Q234.60 30.55 234.60 31.05Q234.60 32.10 233.92 33.77Q233.25 35.45 232.32 37.40Q231.40 39.35 230.72 41.23Q230.05 43.10 230.05 44.60Q230.05 44.80 230.13 45.08Q230.20 45.35 230.50 45.35Q231 45.35 231.85 44.52Q232.70 43.70 233.45 42.73Q234.20 41.75 234.40 41.30Q234.60 41.50 234.60 41.60Q234.60 42.05 233.72 43.02Q232.85 44 231.65 45.05Q230.45 46.10 229.35 46.85Q228.25 47.60 227.80 47.60Q227.30 47.60 227.13 46.85Q226.95 46.10 226.95 45.75Q226.95 44.80 227.38 43.35Q227.80 41.90 228.42 40.30Q229.05 38.70 229.67 37.25Q230.30 35.80 230.70 34.85Q230.85 34.55 231.15 33.77Q231.45 33 231.45 32.65Q231.45 32.40 231.38 32.10Q231.30 31.80 230.95 31.80Q230.40 31.80 229.63 32.45Q228.85 33.10 228.45 33.50Q226.30 35.85 224.72 38.83Q223.15 41.80 222.15 44.85Q222.05 45.25 222 45.40Q221.95 45.55 221.55 45.85Q221.40 45.90 220.63 46.35Q219.85 46.80 219.15 47.23Q218.45 47.65 218.40 47.65ZM245.15 25.50Q244.75 25.50 243.92 25.17Q243.10 24.85 243.10 24.35Q243.10 24.30 243.12 24.27Q243.15 24.25 243.15 24.20Q243.40 23.70 244.27 23.60Q245.15 23.50 245.60 23.30Q246.60 22.90 247.55 22.65Q248.50 22.40 249.35 21.75Q249.55 21.85 249.55 21.95Q249.55 22.15 249.12 22.50Q248.70 22.85 248.55 23.10Q248.35 23.40 247.67 23.97Q247.00 24.55 246.25 25.02Q245.50 25.50 245.15 25.50M236.70 47.15Q235.90 47.15 235.60 46.75Q235.30 46.35 235.30 45.60Q235.30 43.95 235.97 41.60Q236.65 39.25 237.50 36.83Q238.35 34.40 238.85 32.50Q239.05 31.80 239.82 31.52Q240.60 31.25 241.15 30.85Q241.95 30.30 242.85 29.93Q243.75 29.55 244.75 29.55Q245.00 29.55 245.07 29.65Q245.15 29.75 245.15 29.80Q245.15 30.10 244.80 30.10Q244.10 30.10 243.35 30.93Q242.60 31.75 241.85 33.05Q241.10 34.35 240.50 35.75Q239.90 37.15 239.45 38.33Q239.00 39.50 238.85 40.05Q238.60 40.85 238.35 41.92Q238.10 43 238.10 43.90Q238.10 44.25 238.20 44.73Q238.30 45.20 238.80 45.20Q239.15 45.20 239.55 44.95Q240.65 44.30 241.72 43.17Q242.80 42.05 243.72 40.73Q244.65 39.40 245.20 38.30Q245.30 38.35 245.30 38.50Q245.30 38.80 244.95 39.38Q244.60 39.95 244.15 40.60Q243.70 41.25 243.32 41.75Q242.95 42.25 242.95 42.35Q242.90 42.75 242.80 42.92Q242.70 43.10 242.50 43.50Q241.90 44.10 240.90 44.98Q239.90 45.85 238.80 46.50Q237.70 47.15 236.70 47.15ZM241.55 47.65Q241.50 47.65 241.50 47.60Q241.50 47.40 241.67 47.20Q241.85 47 241.90 46.90Q242.25 46.35 242.72 45.02Q243.20 43.70 243.67 42.02Q244.15 40.35 244.57 38.63Q245 36.90 245.35 35.45Q245.70 34 245.85 33.25Q245.95 32.85 246.05 32.20Q246.15 31.55 246.35 30.90Q246.55 30.25 246.80 30.05Q247.30 29.65 248.17 29.35Q249.05 29.05 250 28.88Q250.95 28.70 251.55 28.70Q251.65 28.70 251.80 28.80Q251.95 28.90 252 29L252 29.15Q252 29.30 251.90 29.27Q251.80 29.25 251.70 29.25Q250.60 29.25 249.75 30.47Q248.90 31.70 248.30 33.48Q247.70 35.25 247.30 36.90Q246.90 38.55 246.70 39.40Q248.30 36.65 250.38 34.13Q252.45 31.60 255.25 30.05Q255.60 29.85 256.05 29.63Q256.50 29.40 256.85 29.40Q257.50 29.40 257.65 29.97Q257.80 30.55 257.80 31.05Q257.80 31.70 257.35 32.95Q256.90 34.20 256.32 35.42Q255.75 36.65 255.45 37.35Q255.15 38.15 254.75 39.40Q254.35 40.65 254.05 41.90Q253.75 43.15 253.75 44Q253.75 44.35 253.85 44.80Q253.95 45.25 254.40 45.25Q254.65 45.25 254.82 45.15Q255 45.05 255.20 44.95Q256.35 44.30 257.43 43.17Q258.50 42.05 259.40 40.73Q260.30 39.40 260.90 38.30Q260.95 38.35 260.95 38.50Q260.95 38.80 260.60 39.38Q260.25 39.95 259.80 40.60Q259.35 41.25 258.98 41.75Q258.60 42.25 258.60 42.35Q258.55 42.70 258.45 42.92Q258.35 43.15 258.20 43.50Q257.60 44.10 256.48 44.98Q255.35 45.85 254.17 46.52Q253 47.20 252.10 47.20Q251.30 47.20 251.03 46.58Q250.75 45.95 250.75 45.25Q250.75 43.90 251.30 42.02Q251.85 40.15 252.60 38.27Q253.35 36.40 253.85 35.10Q254 34.70 254.32 33.85Q254.65 33 254.65 32.65Q254.65 32.40 254.57 32.10Q254.50 31.80 254.10 31.80Q253.60 31.80 252.82 32.45Q252.05 33.10 251.65 33.50Q249.50 35.90 247.95 38.83Q246.40 41.75 245.35 44.85Q245.20 45.25 245.17 45.42Q245.15 45.60 244.75 45.85Q244.60 45.95 243.82 46.40Q243.05 46.85 242.32 47.25Q241.60 47.65 241.55 47.65ZM253 60.90Q252.70 60.90 251.85 60.65Q251 60.40 250.28 60Q249.55 59.60 249.55 59.20Q249.55 59.10 249.75 59.10Q250.05 59.20 250.20 59.20Q250.25 59.20 250.45 59.10Q250.25 58.80 250.25 58.50Q250.25 58.25 250.40 58.20Q250.30 57.90 250.15 57.63Q250 57.35 249.85 57.05Q249.75 56.85 249.40 56.42Q249.05 56 249.05 55.80Q249.05 55.65 249.15 55.35Q250.20 56.80 250.95 57.65Q251.70 58.50 252.75 58.88Q253.80 59.25 255.70 59.25Q257.90 59.25 259.82 57.65Q261.75 56.05 263.32 53.52Q264.90 51 266.13 48.10Q267.35 45.20 268.23 42.52Q269.10 39.85 269.55 38.10Q268.95 38.90 267.80 40.40Q266.65 41.90 265.25 43.42Q263.85 44.95 262.48 46.02Q261.10 47.10 260.05 47.10Q259.25 47.10 259.02 46.48Q258.80 45.85 258.80 45.20Q258.80 42.90 259.70 40.17Q260.60 37.45 262.05 34.95Q263.50 32.45 265.20 30.90Q267.10 29.25 269.45 29.25Q270.45 29.25 271.43 29.47Q272.40 29.70 273.35 30.10Q274.20 29.50 275.20 29.05Q276.20 28.60 277.25 28.60Q277.50 28.60 277.65 28.90L277.65 29.05Q277.60 29.20 277.50 29.18Q277.40 29.15 277.30 29.15Q276.35 29.15 275.52 30.20Q274.70 31.25 274.05 32.77Q273.40 34.30 272.95 35.70Q272.50 37.10 272.30 37.80Q271.20 41.75 269.57 45.83Q267.95 49.90 265.35 53.20Q264.75 53.95 264.10 54.67Q263.45 55.40 262.75 56.10Q260.80 58.10 258.35 59.50Q255.90 60.90 253 60.90M262.25 44.95Q262.80 44.95 263.63 44.23Q264.45 43.50 265.38 42.48Q266.30 41.45 267.02 40.50Q267.75 39.55 268.05 39.10Q268.65 38.20 269.43 36.85Q270.20 35.50 270.77 34.05Q271.35 32.60 271.35 31.60Q271.35 30.05 269.80 30.05Q268.90 30.05 267.90 30.85Q266.90 31.65 266.30 32.30Q265.65 33.10 264.82 34.60Q264 36.10 263.30 37.85Q262.60 39.60 262.13 41.20Q261.65 42.80 261.65 43.85Q261.65 44.15 261.77 44.55Q261.90 44.95 262.25 44.95Z"/></g></g></g></svg>